<svg width="565" height="163" viewBox="0 0 565 163" fill="none" xmlns="http://www.w3.org/2000/svg">
<path d="M207.622 98.67H174.157L168.407 115H154.722L183.357 34.96H198.537L227.172 115H213.372L207.622 98.67ZM203.942 87.975L190.947 50.83L177.837 87.975H203.942ZM341.398 35.075L317.708 115H302.873L286.083 54.51L268.258 115L253.538 115.115L230.883 35.075H244.798L261.358 100.165L279.298 35.075H294.018L310.693 99.82L327.368 35.075H341.398ZM398.096 98.67H364.631L358.881 115H345.196L373.831 34.96H389.011L417.646 115H403.846L398.096 98.67ZM394.416 87.975L381.421 50.83L368.311 87.975H394.416ZM454.131 115.805C448.765 115.805 443.935 114.885 439.641 113.045C435.348 111.128 431.975 108.445 429.521 104.995C427.068 101.545 425.841 97.52 425.841 92.92H439.871C440.178 96.37 441.52 99.2067 443.896 101.43C446.35 103.653 449.761 104.765 454.131 104.765C458.655 104.765 462.181 103.692 464.711 101.545C467.241 99.3217 468.506 96.485 468.506 93.035C468.506 90.3517 467.701 88.1667 466.091 86.48C464.558 84.7933 462.603 83.49 460.226 82.57C457.926 81.65 454.706 80.6533 450.566 79.58C445.353 78.2 441.098 76.82 437.801 75.44C434.581 73.9833 431.821 71.76 429.521 68.77C427.221 65.78 426.071 61.7933 426.071 56.81C426.071 52.21 427.221 48.185 429.521 44.735C431.821 41.285 435.041 38.64 439.181 36.8C443.321 34.96 448.113 34.04 453.556 34.04C461.3 34.04 467.625 35.995 472.531 39.905C477.515 43.7383 480.275 49.0283 480.811 55.775H466.321C466.091 52.8617 464.711 50.37 462.181 48.3C459.651 46.23 456.316 45.195 452.176 45.195C448.42 45.195 445.353 46.1533 442.976 48.07C440.6 49.9867 439.411 52.7467 439.411 56.35C439.411 58.8033 440.14 60.835 441.596 62.445C443.13 63.9783 445.046 65.205 447.346 66.125C449.646 67.045 452.79 68.0417 456.776 69.115C462.066 70.5717 466.36 72.0283 469.656 73.485C473.03 74.9417 475.866 77.2033 478.166 80.27C480.543 83.26 481.731 87.285 481.731 92.345C481.731 96.4083 480.62 100.242 478.396 103.845C476.25 107.448 473.068 110.362 468.851 112.585C464.711 114.732 459.805 115.805 454.131 115.805ZM546.535 35.075V45.77H525.26V115H512.15V45.77H490.76V35.075H546.535Z" fill="#141718"/>
<path d="M79.5423 93.8796C81.9217 92.3918 83.7248 90.1394 84.6555 87.4919L87.739 78.7207C91.9173 66.8354 109.112 68.0692 111.551 80.4293L115.254 99.2C116.577 105.904 112.214 112.411 105.51 113.734L87.1395 117.358C73.6609 120.017 66.5362 102.011 78.1851 94.7281L79.5423 93.8796Z" fill="#141718"/>
<path d="M54.7547 82.2573C55.1224 85.0394 56.425 87.6138 58.4486 89.5581L65.1529 95.9997C74.2376 104.728 65.988 119.865 53.7289 116.962L35.1115 112.552C28.462 110.977 24.3483 104.31 25.9233 97.6605L30.2388 79.4401C33.4052 66.0716 52.7448 67.0506 54.545 80.6705L54.7547 82.2573Z" fill="#141718"/>
<path d="M76.0767 69.79C73.597 68.4761 70.7443 68.0441 67.9868 68.565L58.851 70.2909C46.4716 72.6294 38.9247 57.1301 48.3999 48.8272L62.7895 36.218C67.9289 31.7145 75.746 32.23 80.2496 37.3694L92.5899 51.4521C101.644 61.7848 89.6305 76.9719 77.491 70.5394L76.0767 69.79Z" fill="#141718"/>
</svg>
