<svg width="100" height="100" viewBox="0 0 150 163" fill="none" xmlns="http://www.w3.org/2000/svg">
    <path d="M79.5423 93.8796C81.9217 92.3918 83.7248 90.1394 84.6555 87.4919L87.739 78.7207C91.9173 66.8354 109.112 68.0692 111.551 80.4293L115.254 99.2C116.577 105.904 112.214 112.411 105.51 113.734L87.1395 117.358C73.6609 120.017 66.5362 102.011 78.1851 94.7281L79.5423 93.8796Z" fill="#141718"/>
    <path d="M54.7547 82.2573C55.1224 85.0394 56.425 87.6138 58.4486 89.5581L65.1529 95.9997C74.2376 104.728 65.988 119.865 53.7289 116.962L35.1115 112.552C28.462 110.977 24.3483 104.31 25.9233 97.6605L30.2388 79.4401C33.4052 66.0716 52.7448 67.0506 54.545 80.6705L54.7547 82.2573Z" fill="#141718"/>
    <path d="M76.0767 69.79C73.597 68.4761 70.7443 68.0441 67.9868 68.565L58.851 70.2909C46.4716 72.6294 38.9247 57.1301 48.3999 48.8272L62.7895 36.218C67.9289 31.7145 75.746 32.23 80.2496 37.3694L92.5899 51.4521C101.644 61.7848 89.6305 76.9719 77.491 70.5394L76.0767 69.79Z" fill="#141718"/>
</svg>
